<?xml version="1.0" encoding="utf-8"?>
<!-- Generator: Adobe Illustrator 26.0.0, SVG Export Plug-In . SVG Version: 6.00 Build 0)  -->
<svg version="1.1" id="Layer_1" xmlns="http://www.w3.org/2000/svg" xmlns:xlink="http://www.w3.org/1999/xlink" x="0px" y="0px"
	 viewBox="0 0 257 256" style="enable-background:new 0 0 257 256;" xml:space="preserve">
<style type="text/css">
	.st0{fill-rule:evenodd;clip-rule:evenodd;fill:#B50028;}
</style>
<polygon class="st0" points="65.5,65.5 119.5,65.5 119.5,190.5 65.5,190.5 65.5,154.8 83.5,154.8 83.5,172.6 101.5,172.6 
	101.5,136.9 47.5,136.9 47.5,190.5 29.6,190.5 29.6,65.5 47.5,65.5 47.5,119.1 101.5,119.1 101.5,83.4 83.5,83.4 83.5,101.2 
	65.5,101.2 "/>
<polygon class="st0" points="191.4,190.5 137.5,190.5 137.5,65.5 191.4,65.5 191.4,101.2 173.5,101.2 173.5,83.4 155.5,83.4 
	155.5,119.1 209.4,119.1 209.4,65.5 227.4,65.5 227.4,190.5 209.4,190.5 209.4,136.9 155.5,136.9 155.5,172.6 173.5,172.6 
	173.5,154.8 191.4,154.8 "/>
</svg>
