<svg width="191" height="910" viewBox="0 0 191 910" fill="none" xmlns="http://www.w3.org/2000/svg">
<g clip-path="url(#clip0_1183_23094)">
<path d="M86.7814 821.361L86.7814 803.55L69.4657 803.55L69.4657 857.025L121.575 857.025L121.575 821.361L121.575 803.55L121.575 767.886L104.178 767.886L52.1095 767.886L34.7126 767.886L34.7126 785.698L34.7126 803.55L34.7126 874.837L34.7126 892.648L52.1095 892.648L138.931 892.648L156.288 892.648L156.288 874.837L156.288 803.55L156.288 767.886L156.288 758.6L156.288 750.074L156.288 643.124L156.288 625.272L138.931 625.272L52.1094 625.272L34.7126 625.272L34.7126 643.124L34.7126 732.223L34.7126 750.074L52.1095 750.074L104.178 750.074L121.575 750.074L121.575 714.411L121.575 696.559L121.575 660.936L69.4657 660.936L69.4657 714.411L86.7814 714.411L86.7814 696.559L86.7814 678.747L104.178 678.747L104.178 696.559L104.178 714.411L104.178 732.223L52.1095 732.223L52.1094 643.124L138.931 643.124L138.931 750.074L138.931 758.6L138.931 767.886L138.931 803.55L138.931 874.837L52.1095 874.837L52.1095 803.55L52.1095 785.698L104.178 785.698L104.178 803.55L104.178 821.361L104.178 839.173L86.7814 839.173L86.7814 821.361Z" fill="#CACACA"/>
<path d="M86.7814 518.322L86.7814 500.47L69.4657 500.47L69.4657 553.945L121.575 553.945L121.575 518.322L121.575 500.47L121.575 464.846L104.178 464.846L52.1095 464.846L34.7126 464.846L34.7126 482.658L34.7126 500.47L34.7126 571.757L34.7126 589.609L52.1095 589.609L138.931 589.609L156.288 589.609L156.288 571.757L156.288 500.47L156.288 464.846L156.288 455.56L156.288 446.995L156.288 340.044L156.288 322.192L138.931 322.192L52.1094 322.192L34.7126 322.192L34.7126 340.044L34.7126 429.183L34.7126 446.995L52.1095 446.995L104.178 446.995L121.575 446.995L121.575 411.331L121.575 393.519L121.575 357.896L69.4657 357.896L69.4657 411.331L86.7814 411.331L86.7814 393.519L86.7814 375.708L104.178 375.708L104.178 393.519L104.178 411.331L104.178 429.183L52.1095 429.183L52.1094 340.044L138.931 340.044L138.931 446.995L138.931 455.56L138.931 464.846L138.931 500.47L138.931 571.757L52.1095 571.757L52.1095 500.47L52.1095 482.658L104.178 482.658L104.178 500.47L104.178 518.322L104.178 536.133L86.7814 536.133L86.7814 518.322Z" fill="#CACACA"/>
<path d="M86.7814 215.242L86.7814 197.43L69.4657 197.43L69.4657 250.905L121.575 250.905L121.575 215.242L121.575 197.43L121.575 161.767L104.178 161.767L52.1095 161.767L34.7126 161.767L34.7126 179.618L34.7126 197.43L34.7126 268.717L34.7126 286.529L52.1095 286.529L138.931 286.529L156.288 286.529L156.288 268.717L156.288 197.43L156.288 161.767L156.288 152.52L156.288 143.955L156.288 37.0043L156.288 19.1525L138.931 19.1525L52.1094 19.1525L34.7126 19.1525L34.7126 37.0043L34.7126 126.103L34.7126 143.955L52.1095 143.955L104.178 143.955L121.575 143.955L121.575 108.291L121.575 90.4796L121.575 54.816L69.4657 54.816L69.4657 108.291L86.7814 108.291L86.7814 90.4796L86.7814 72.6278L104.178 72.6278L104.178 90.4796L104.178 108.291L104.178 126.103L52.1095 126.103L52.1094 37.0043L138.931 37.0043L138.931 143.955L138.931 152.52L138.931 161.767L138.931 197.43L138.931 268.717L52.1095 268.717L52.1095 197.43L52.1095 179.618L104.178 179.618L104.178 197.43L104.178 215.242L104.178 233.054L86.7814 233.054L86.7814 215.242Z" fill="#CACACA"/>
<path d="M173.644 -604.779L173.644 -301.739L173.644 1.34084L173.644 304.381L173.644 607.46L173.644 910.5L191 910.5L191 607.46L191 304.381L191 1.34084L191 -301.739L191 -604.779L191 -907.858L191 -1210.9L173.644 -1210.9L173.644 -907.858L173.644 -604.779Z" fill="#CACACA"/>
<path d="M4.25873e-05 -907.858L5.58354e-05 -604.779L6.90817e-05 -301.739L8.23297e-05 1.34084L9.5576e-05 304.381L0.000108824 607.46L0.00012207 910.5L17.3564 910.5L17.3564 607.46L17.3564 304.381L17.3563 1.34084L17.3563 -301.739L17.3563 -604.779L17.3563 -907.858L17.3563 -1210.9L2.93411e-05 -1210.9L4.25873e-05 -907.858Z" fill="#CACACA"/>
</g>
<defs>
<clipPath id="clip0_1183_23094">
<rect width="910" height="191" fill="white" transform="translate(0 910) rotate(-90)"/>
</clipPath>
</defs>
</svg>
