<svg version="1.1" id="Layer_1" xmlns="http://www.w3.org/2000/svg" xmlns:xlink="http://www.w3.org/1999/xlink" x="0px" y="0px"
	 viewBox="0 0 208 32" style="enable-background:new 0 0 208 32;" xml:space="preserve">
<g>
	<defs>
		<rect id="SVGID_00000033349709013896614440000008751685921781003396_" x="67" y="4" width="132.7" height="24"/>
	</defs>
	<clipPath id="SVGID_00000126322466413225503510000002385812109865264792_">
		<use xlink:href="#SVGID_00000033349709013896614440000008751685921781003396_"  style="overflow:visible;"/>
	</clipPath>
	<g style="clip-path:url(#SVGID_00000126322466413225503510000002385812109865264792_);">
		<path class="st3" d="M69.9,24.9C68,22.8,67,19.9,67,16.3c0-3.8,1-6.8,3-9c2-2.2,4.7-3.3,8.3-3.3c0.8,0,1.7,0.1,2.5,0.3
			c0.7,0.2,1.4,0.4,2.1,0.7c0.4,0.2,0.8,0.3,1.2,0.4c0.2,0,0.4,0,0.5-0.1c0.2-0.1,0.3-0.2,0.3-0.4l0.1-0.4h0.9l0.4,6.3h-0.9
			c-1-3.7-3.2-5.5-6.8-5.5c-1.9,0-3.5,0.6-4.6,1.7c-1.2,1.1-2,2.6-2.4,4.2c-0.5,1.6-0.7,3.3-0.7,4.9c0,1.8,0.3,3.6,0.8,5.3
			c0.5,1.5,1.4,2.9,2.6,4c1.2,1,2.8,1.6,4.4,1.5c1.2,0,2.4-0.2,3.5-0.7c0.8-0.4,1.6-1,2.1-1.8c0.5-0.8,1-1.6,1.3-2.4l0.9,0.5
			c-0.6,1.5-1.5,2.9-2.7,4C82.4,27.5,80.5,28,78,28C74.5,28,71.8,27,69.9,24.9z"/>
		<path class="st3" d="M89.7,26.6c0.6,0,1.2,0,1.8-0.2c0.2,0,0.3-0.1,0.4-0.2s0.2-0.2,0.3-0.4c0.1-0.4,0.2-0.8,0.2-1.3V7.4
			c0-0.4,0-0.9-0.2-1.3C92.2,6,92.1,5.9,92,5.8c-0.1-0.1-0.3-0.2-0.4-0.2c-0.6-0.1-1.2-0.2-1.8-0.2v-1h9.4c2.3,0,4.1,0.5,5.4,1.4
			c1.3,1,2,2.4,2,4.3c0.1,1.4-0.4,2.8-1.4,3.9c-1,1-2.2,1.7-3.6,2v0.1c1.1,0.3,2,0.9,2.6,1.7c0.6,0.8,1,2,1.2,3.7l0.2,1.3
			c0.1,1,0.5,2,1,2.9c0.2,0.3,0.5,0.6,0.9,0.7c0.3,0.2,0.7,0.2,1.1,0.2v1h-4.6c-0.6-0.6-1.1-1.6-1.4-3.2l-0.8-4.3
			c-0.2-1.2-0.7-2-1.3-2.5c-0.6-0.5-1.5-0.8-2.8-0.8h-2.2v7.9c0,0.4,0,0.9,0.2,1.3c0.1,0.1,0.2,0.3,0.3,0.4c0.1,0.1,0.3,0.2,0.5,0.2
			c0.6,0.1,1.3,0.2,1.9,0.1v1h-8.8V26.6z M97.9,15.4c1.8,0,3.1-0.4,3.9-1.2c0.8-0.8,1.3-2,1.3-3.7c0-1.7-0.4-2.9-1.3-3.7
			c-0.9-0.8-2.2-1.2-4-1.2c-0.9,0-1.5,0.1-1.7,0.3c-0.1,0.1-0.3,0.3-0.3,0.4c-0.1,0.2-0.1,0.4-0.1,0.5v8.5H97.9z"/>
		<path class="st3" d="M113,24.7c-1.8-2.2-2.6-5.1-2.6-8.7c0-3.6,0.9-6.5,2.6-8.7c1.8-2.2,4.4-3.3,8-3.3c3.6,0,6.2,1.1,8,3.3
			c1.8,2.2,2.6,5.1,2.6,8.7c0,3.6-0.9,6.5-2.6,8.7c-1.8,2.2-4.4,3.3-8,3.3S114.7,26.9,113,24.7z M126.3,23.7c1-2.1,1.5-4.6,1.5-7.7
			c0-3.3-0.5-5.9-1.5-7.9c-1-2-2.8-3-5.4-3c-2.6,0-4.4,1-5.4,3c-1,2-1.5,4.6-1.5,7.9c0,3.1,0.5,5.6,1.5,7.7s2.8,3.1,5.3,3.1
			C123.5,26.8,125.3,25.8,126.3,23.7L126.3,23.7z"/>
		<path class="st3" d="M138.2,7.9L138.2,7.9l-0.1,16.9c-0.1,0.5,0.1,1,0.4,1.4c0.2,0.2,0.4,0.3,0.6,0.3c0.2,0.1,0.5,0.1,0.7,0.1h1.4
			v1h-7.1v-1h1c0.2,0,0.5,0,0.7-0.1c0.2-0.1,0.4-0.2,0.6-0.4c0.3-0.4,0.4-0.9,0.4-1.4V7.4c0-0.4,0-0.9-0.2-1.3
			c-0.1-0.1-0.2-0.3-0.3-0.3c-0.1-0.1-0.3-0.2-0.4-0.2c-0.6-0.1-1.2-0.2-1.8-0.2v-1h5.9l11.8,18h0.1V7.1c0-1.1-0.6-1.7-1.8-1.7h-1.4
			v-1h7.2v1h-1.1c-1.1,0-1.6,0.6-1.6,1.7v20.7h-1.7L138.2,7.9z"/>
		<path class="st3" d="M163.6,25.9c-1.4-1.4-2.1-3.6-2.1-6.5V7.5c0-0.5,0-0.9-0.2-1.4c-0.1-0.1-0.2-0.3-0.3-0.4
			c-0.1-0.1-0.3-0.2-0.4-0.2c-0.6-0.1-1.2-0.2-1.8-0.2v-1h8.6v1c-0.6,0-1.2,0-1.8,0.2c-0.2,0-0.3,0.1-0.4,0.2
			c-0.1,0.1-0.2,0.2-0.3,0.4c-0.1,0.5-0.2,0.9-0.2,1.4v12.1c0,2.2,0.5,4,1.4,5.2c0.9,1.3,2.3,1.9,4.1,1.9c1.8,0,3.2-0.6,4.1-1.9
			c0.9-1.3,1.4-3,1.4-5.3V7.5c0-0.5,0-0.9-0.2-1.4c-0.1-0.1-0.2-0.3-0.3-0.4c-0.1-0.1-0.3-0.2-0.4-0.2c-0.6-0.1-1.2-0.2-1.8-0.2v-1
			h8.6v1c-0.6,0-1.3,0-1.9,0.2c-0.2,0-0.3,0.1-0.4,0.2c-0.1,0.1-0.2,0.2-0.3,0.4c-0.1,0.5-0.2,0.9-0.1,1.4v11.9
			c0,2.9-0.7,5.1-2.2,6.5s-3.6,2.1-6.6,2.1C167.2,28,165,27.3,163.6,25.9z"/>
		<path class="st3" d="M184.7,20.8h0.9c0.2,1.6,0.9,3,2,4.2c0.5,0.6,1.2,1,1.9,1.3c0.7,0.3,1.5,0.4,2.3,0.4c1.5,0,2.6-0.4,3.5-1.3
			c0.4-0.4,0.7-0.9,0.9-1.5c0.2-0.6,0.3-1.2,0.3-1.8c0-1-0.3-2-1-2.7c-0.9-0.9-1.9-1.6-3.1-2l-1.6-0.7c-1.9-0.8-3.4-1.7-4.4-2.7
			c-1-1-1.5-2.4-1.5-4.1c0-2,0.7-3.5,2-4.5c1.3-1,3-1.5,5.1-1.5c1.2,0,2.4,0.2,3.5,0.7c0.3,0.1,0.6,0.2,0.9,0.2c0.1,0,0.2,0,0.2-0.1
			c0.1,0,0.1-0.1,0.2-0.2c0.1-0.2,0.2-0.4,0.2-0.7h0.8l0.4,6.2h-0.9c-0.2-1.4-0.7-2.7-1.7-3.7c-0.9-0.9-2.1-1.4-3.6-1.4
			c-1.1-0.1-2.1,0.3-3,1c-0.7,0.7-1.1,1.7-1.1,3c0,0.5,0,1,0.2,1.4c0.2,0.5,0.4,0.9,0.8,1.2c0.9,0.8,1.9,1.4,3,1.9l1.7,0.7
			c1.1,0.5,2.1,1,3.1,1.6c0.8,0.5,1.5,1.3,2.1,2.1c0.6,1,0.8,2.1,0.8,3.2c0,2.1-0.7,3.7-2.1,4.9c-1.4,1.2-3.3,1.8-5.7,1.8
			c-0.7,0-1.5-0.1-2.2-0.2c-0.6-0.1-1.3-0.3-1.9-0.5c-0.3-0.2-0.6-0.3-1-0.3c-0.1,0-0.2,0-0.3,0.1c-0.1,0-0.2,0.1-0.3,0.2
			c-0.1,0.2-0.2,0.4-0.2,0.6h-0.9L184.7,20.8z"/>
	</g>
</g>
</svg>
